<?xml version="1.0" encoding="UTF-8"?>
<svg width="20px" height="20px" viewBox="0 0 20 20" version="1.1" xmlns="http://www.w3.org/2000/svg" xmlns:xlink="http://www.w3.org/1999/xlink">
    <!-- Generator: Sketch 51.2 (57519) - http://www.bohemiancoding.com/sketch -->
    <title>history-square</title>
    <desc>Created with Sketch.</desc>
    <defs></defs>
    <g id="history-square" stroke="none" stroke-width="1" fill="none" fill-rule="evenodd">
        <path d="M11.4238095,2 C6.68571429,2 2.85714286,5.69903382 2.85714286,10.2608696 L0,10.2608696 L3.70952381,13.8359903 L3.77619048,13.9690821 L7.61904762,10.2608696 L4.76190476,10.2608696 C4.76190476,6.71328502 7.74761905,3.83574879 11.4285714,3.83574879 C15.1095238,3.83574879 18.0952381,6.71328502 18.0952381,10.2608696 C18.0952381,13.8084541 15.1095238,16.6859903 11.4285714,16.6859903 C9.58571429,16.6859903 7.92380952,15.9608696 6.71904762,14.7997585 L5.37142857,16.0985507 C6.91904762,17.594686 9.05714286,18.5217391 11.4238095,18.5217391 C16.1619048,18.5217391 20,14.8227053 20,10.2608696 C20,5.69903382 16.1619048,2 11.4238095,2 Z M10.4761905,6.58937198 L10.4761905,11.178744 L14.552381,13.5101449 L15.2380952,12.3949275 L11.9047619,10.4903382 L11.9047619,6.58937198 L10.4761905,6.58937198 Z" id="Page-1" fill="#54595D"></path>
    </g>
</svg>