<?xml version="1.0" encoding="UTF-8"?>
<svg width="16px" height="15px" viewBox="0 0 16 15" version="1.1" xmlns="http://www.w3.org/2000/svg" xmlns:xlink="http://www.w3.org/1999/xlink">
    <!-- Generator: Sketch 50.2 (55047) - http://www.bohemiancoding.com/sketch -->
    <title>print</title>
    <desc>Created with Sketch.</desc>
    <defs></defs>
    <g id="Page-1" stroke="none" stroke-width="1" fill="none" fill-rule="evenodd">
        <g id="page" transform="translate(-150.000000, -351.000000)" fill="#54595D" fill-rule="nonzero">
            <g id="Group-5" transform="translate(150.000000, 306.000000)">
                <g id="Group-12" transform="translate(0.000000, 41.500000)">
                    <path d="M13.6,7.95061728 L2.4,7.95061728 C1.076,7.95061728 0,9.01333333 0,10.3209877 L0,15.0617284 L3.2,15.0617284 L3.2,18.2222222 L12.8,18.2222222 L12.8,15.0617284 L16,15.0617284 L16,10.3209877 C16,9.01333333 14.924,7.95061728 13.6,7.95061728 Z M11.2,16.6419753 L4.8,16.6419753 L4.8,12.691358 L11.2,12.691358 L11.2,16.6419753 Z M13.6,11.1111111 C13.156,11.1111111 12.8,10.7595062 12.8,10.3209877 C12.8,9.88246914 13.156,9.5308642 13.6,9.5308642 C14.044,9.5308642 14.4,9.88246914 14.4,10.3209877 C14.4,10.7595062 14.044,11.1111111 13.6,11.1111111 Z M12.8,4 L3.2,4 L3.2,7.16049383 L12.8,7.16049383 L12.8,4 Z" id="print"></path>
                </g>
            </g>
        </g>
    </g>
</svg>