<?xml version="1.0" encoding="UTF-8"?>
<svg width="20px" height="20px" viewBox="0 0 20 20" version="1.1" xmlns="http://www.w3.org/2000/svg" xmlns:xlink="http://www.w3.org/1999/xlink">
    <!-- Generator: Sketch 51.2 (57519) - http://www.bohemiancoding.com/sketch -->
    <title>more-square</title>
    <desc>Created with Sketch.</desc>
    <defs></defs>
    <g id="more-square" stroke="none" stroke-width="1" fill="none" fill-rule="evenodd">
        <path d="M10.5,5.96341463 C9.67157288,5.96341463 9,5.30003167 9,4.48170732 C9,3.66338296 9.67157288,3 10.5,3 C11.3284271,3 12,3.66338296 12,4.48170732 C12,5.30003167 11.3284271,5.96341463 10.5,5.96341463 Z M10.5,11.2317073 C9.67157288,11.2317073 9,10.5683244 9,9.75 C9,8.93167565 9.67157288,8.26829268 10.5,8.26829268 C11.3284271,8.26829268 12,8.93167565 12,9.75 C12,10.5683244 11.3284271,11.2317073 10.5,11.2317073 Z M10.5,16.5 C9.67157288,16.5 9,15.836617 9,15.0182927 C9,14.1999683 9.67157288,13.5365854 10.5,13.5365854 C11.3284271,13.5365854 12,14.1999683 12,15.0182927 C12,15.836617 11.3284271,16.5 10.5,16.5 Z" id="Combined-Shape" fill="#54595D"></path>
    </g>
</svg>